<svg width="33" height="32" viewBox="0 0 33 32" fill="none" xmlns="http://www.w3.org/2000/svg">
<path fill-rule="evenodd" clip-rule="evenodd" d="M6.79297 12.4502C7.34525 12.4502 7.79297 12.8979 7.79297 13.4502V26.0002H25.793V13.4502C25.793 12.8979 26.2407 12.4502 26.793 12.4502C27.3453 12.4502 27.793 12.8979 27.793 13.4502V26.0002C27.793 26.5306 27.5823 27.0393 27.2072 27.4144C26.8321 27.7895 26.3234 28.0002 25.793 28.0002H7.79297C7.26254 28.0002 6.75383 27.7895 6.37876 27.4144C6.00368 27.0393 5.79297 26.5306 5.79297 26.0002V13.4502C5.79297 12.8979 6.24068 12.4502 6.79297 12.4502Z" fill="#D756D9"/>
<path fill-rule="evenodd" clip-rule="evenodd" d="M3.79297 5C3.79297 4.44772 4.24068 4 4.79297 4H28.793C29.3453 4 29.793 4.44772 29.793 5C29.793 5.55228 29.3453 6 28.793 6H4.79297C4.24068 6 3.79297 5.55228 3.79297 5Z" fill="#D756D9"/>
<path fill-rule="evenodd" clip-rule="evenodd" d="M4.79297 7C5.34525 7 5.79297 7.44772 5.79297 8V10C5.79297 10.7956 6.10904 11.5587 6.67165 12.1213C7.23426 12.6839 7.99732 13 8.79297 13C9.58862 13 10.3517 12.6839 10.9143 12.1213C11.4769 11.5587 11.793 10.7956 11.793 10V8C11.793 7.44772 12.2407 7 12.793 7C13.3453 7 13.793 7.44772 13.793 8V10C13.793 11.3261 13.2662 12.5979 12.3285 13.5355C11.3908 14.4732 10.1191 15 8.79297 15C7.46689 15 6.19512 14.4732 5.25743 13.5355C4.31975 12.5979 3.79297 11.3261 3.79297 10V8C3.79297 7.44772 4.24068 7 4.79297 7Z" fill="#D756D9"/>
<path fill-rule="evenodd" clip-rule="evenodd" d="M12.793 7C13.3453 7 13.793 7.44772 13.793 8V10C13.793 10.7956 14.109 11.5587 14.6716 12.1213C15.2343 12.6839 15.9973 13 16.793 13C17.5886 13 18.3517 12.6839 18.9143 12.1213C19.4769 11.5587 19.793 10.7956 19.793 10V8C19.793 7.44772 20.2407 7 20.793 7C21.3453 7 21.793 7.44772 21.793 8V10C21.793 11.3261 21.2662 12.5979 20.3285 13.5355C19.3908 14.4732 18.1191 15 16.793 15C15.4669 15 14.1951 14.4732 13.2574 13.5355C12.3198 12.5979 11.793 11.3261 11.793 10V8C11.793 7.44772 12.2407 7 12.793 7Z" fill="#D756D9"/>
<path fill-rule="evenodd" clip-rule="evenodd" d="M20.793 7C21.3453 7 21.793 7.44772 21.793 8V10C21.793 10.7956 22.109 11.5587 22.6716 12.1213C23.2343 12.6839 23.9973 13 24.793 13C25.5886 13 26.3517 12.6839 26.9143 12.1213C27.4769 11.5587 27.793 10.7956 27.793 10V8C27.793 7.44772 28.2407 7 28.793 7C29.3453 7 29.793 7.44772 29.793 8V10C29.793 11.3261 29.2662 12.5979 28.3285 13.5355C27.3908 14.4732 26.1191 15 24.793 15C23.4669 15 22.1951 14.4732 21.2574 13.5355C20.3198 12.5979 19.793 11.3261 19.793 10V8C19.793 7.44772 20.2407 7 20.793 7Z" fill="#D756D9"/>
</svg>
