<svg width="29" height="28" viewBox="0 0 29 28" fill="none" xmlns="http://www.w3.org/2000/svg">
<path d="M2.41406 7.75H27.4141M2.41406 4.625C2.41406 3.7962 2.67745 3.00134 3.1463 2.41529C3.61514 1.82924 4.25102 1.5 4.91406 1.5H24.9141C25.5771 1.5 26.213 1.82924 26.6818 2.41529C27.1507 3.00134 27.4141 3.7962 27.4141 4.625V23.375C27.4141 24.2038 27.1507 24.9987 26.6818 25.5847C26.213 26.1708 25.5771 26.5 24.9141 26.5H4.91406C4.25102 26.5 3.61514 26.1708 3.1463 25.5847C2.67745 24.9987 2.41406 24.2038 2.41406 23.375V4.625Z" stroke="white" stroke-width="3" stroke-linecap="round" stroke-linejoin="round"/>
<path d="M2.41406 14H11.1641C11.1641 15.5625 11.9141 18.6875 14.9141 18.6875C17.9141 18.6875 18.6641 15.5625 18.6641 14H27.4141" stroke="white" stroke-width="3" stroke-linecap="round" stroke-linejoin="round"/>
</svg>
